<svg xmlns:inkscape="http://www.inkscape.org/namespaces/inkscape" xmlns:sodipodi="http://sodipodi.sourceforge.net/DTD/sodipodi-0.dtd" xmlns="http://www.w3.org/2000/svg" xmlns:svg="http://www.w3.org/2000/svg" width="750" height="300" viewBox="0 0 750 300" version="1.1" id="svg3520" inkscape:version="1.2.2 (732a01da63, 2022-12-09)" sodipodi:docname="DevOps Moldova Logo.svg" xml:space="preserve"><defs id="defs3517"/><g inkscape:label="Layer 1" inkscape:groupmode="layer" id="layer1"><g id="g1815" transform="matrix(0.973973,0,0,0.973973,-1028.5978,-562.9908)" inkscape:export-filename="DevOps_Moldova_Facebiik.png" inkscape:export-xdpi="300" inkscape:export-ydpi="300"><g id="g1793"><g id="g1791"><path class="st0" d="m 1196.3,832.8 v 34.7 h -5.9 v -34.7 z m -2.3,34.7 V 862 h 7.4 c 1.7,0 3.3,-0.2 4.8,-0.7 1.5,-0.5 2.7,-1.2 3.8,-2.2 1.1,-1 1.9,-2.2 2.5,-3.7 0.6,-1.5 0.9,-3.2 0.9,-5.2 0,-1.9 -0.3,-3.7 -0.9,-5.2 -0.6,-1.5 -1.5,-2.7 -2.5,-3.7 -1.1,-1 -2.3,-1.7 -3.8,-2.2 -1.5,-0.5 -3,-0.7 -4.8,-0.7 h -7.4 v -5.5 h 7.6 c 3.5,0 6.6,0.7 9.3,2.2 2.7,1.4 4.8,3.5 6.3,6 1.5,2.6 2.3,5.6 2.3,9.1 0,3.5 -0.8,6.5 -2.3,9.1 -1.5,2.6 -3.6,4.6 -6.3,6 -2.7,1.4 -5.8,2.2 -9.3,2.2 z" id="path1761" style="fill:#5273ff"/><path class="st0" d="m 1230.9,832.8 v 34.7 h -5.7 v -34.7 z m -2.2,0 h 17.5 v 5.2 h -17.5 z m 0,13.6 h 16.5 v 5.1 h -16.5 z m 0,15.9 h 17.5 v 5.2 h -17.5 z" id="path1763" style="fill:#5273ff"/><path class="st0" d="m 1276.8,832.8 h 6.7 l -16.9,36.6 -16.9,-36.6 h 6.7 l 10.2,24.4 z" id="path1765" style="fill:#5273ff"/><path class="st0" d="m 1286.2,843 c 0.9,-2.2 2.2,-4.1 3.8,-5.7 1.6,-1.6 3.5,-2.8 5.7,-3.7 2.2,-0.9 4.6,-1.3 7.1,-1.3 2.6,0 5,0.4 7.2,1.3 2.2,0.9 4.1,2.1 5.7,3.7 1.6,1.6 2.9,3.5 3.8,5.7 0.9,2.2 1.3,4.6 1.3,7.2 0,2.6 -0.4,5 -1.3,7.2 -0.9,2.2 -2.1,4.1 -3.8,5.7 -1.6,1.6 -3.5,2.9 -5.7,3.8 -2.2,0.9 -4.6,1.4 -7.2,1.4 -2.6,0 -5,-0.5 -7.2,-1.4 -2.2,-0.9 -4.1,-2.2 -5.7,-3.8 -1.6,-1.6 -2.8,-3.5 -3.7,-5.7 -0.9,-2.2 -1.3,-4.6 -1.3,-7.2 0,-2.7 0.4,-5.1 1.3,-7.2 z m 6.4,13.5 c 1,1.9 2.4,3.3 4.2,4.4 1.8,1.1 3.8,1.6 6.1,1.6 2.3,0 4.4,-0.5 6.1,-1.6 1.8,-1.1 3.2,-2.5 4.2,-4.4 1,-1.9 1.5,-4 1.5,-6.4 0,-2.4 -0.5,-4.5 -1.5,-6.4 -1,-1.9 -2.4,-3.3 -4.1,-4.4 -1.8,-1.1 -3.8,-1.6 -6.2,-1.6 -2.3,0 -4.3,0.5 -6.1,1.6 -1.8,1.1 -3.2,2.5 -4.2,4.4 -1,1.9 -1.5,4 -1.5,6.4 -0.1,2.4 0.4,4.5 1.5,6.4 z" id="path1767" style="fill:#5273ff"/><path class="st0" d="m 1332.4,832.8 v 34.7 h -5.8 v -34.7 z m -2.4,0 h 7 c 2.5,0 4.7,0.4 6.6,1.3 1.9,0.9 3.3,2.1 4.3,3.7 1,1.6 1.5,3.5 1.5,5.7 0,2.2 -0.5,4.1 -1.5,5.7 -1,1.6 -2.5,2.9 -4.3,3.7 -1.9,0.9 -4.1,1.3 -6.6,1.3 h -7 V 849 h 7 c 2,0 3.6,-0.5 4.9,-1.4 1.2,-1 1.8,-2.4 1.8,-4.2 0,-1.8 -0.6,-3.2 -1.8,-4.2 -1.2,-1 -2.8,-1.4 -4.9,-1.4 h -7 z" id="path1769" style="fill:#5273ff"/><path class="st0" d="m 1359.9,859.8 c 0.9,1 1.8,1.8 2.9,2.3 1.1,0.5 2.2,0.8 3.6,0.8 1.6,0 2.9,-0.4 3.9,-1.3 1,-0.9 1.5,-2 1.5,-3.3 0,-1.3 -0.3,-2.3 -0.9,-3.1 -0.6,-0.8 -1.5,-1.4 -2.6,-2 -1.1,-0.5 -2.4,-1.1 -3.8,-1.6 -0.9,-0.3 -1.8,-0.7 -2.9,-1.2 -1.1,-0.5 -2.1,-1.2 -3,-1.9 -1,-0.8 -1.8,-1.7 -2.4,-2.9 -0.6,-1.1 -0.9,-2.5 -0.9,-4.1 0,-1.8 0.5,-3.5 1.4,-4.9 1,-1.4 2.3,-2.5 3.9,-3.3 1.6,-0.8 3.5,-1.2 5.6,-1.2 2,0 3.8,0.4 5.3,1.1 1.5,0.7 2.8,1.7 3.8,2.8 1,1.1 1.9,2.3 2.5,3.5 l -4.8,2.7 c -0.4,-0.9 -1,-1.7 -1.6,-2.4 -0.7,-0.7 -1.4,-1.3 -2.3,-1.8 -0.9,-0.4 -1.9,-0.7 -3,-0.7 -1.6,0 -2.8,0.4 -3.6,1.1 -0.8,0.7 -1.1,1.6 -1.1,2.6 0,0.9 0.3,1.7 0.8,2.4 0.5,0.7 1.4,1.4 2.6,2 1.2,0.6 2.7,1.3 4.5,1.9 1,0.4 2.1,0.8 3.1,1.4 1,0.6 2,1.3 2.8,2.1 0.9,0.8 1.5,1.8 2.1,2.9 0.5,1.1 0.8,2.4 0.8,4 0,1.6 -0.3,3.1 -0.9,4.4 -0.6,1.3 -1.5,2.4 -2.6,3.2 -1.1,0.8 -2.3,1.6 -3.7,2 -1.4,0.5 -2.8,0.7 -4.3,0.7 -2,0 -3.9,-0.4 -5.7,-1.2 -1.8,-0.8 -3.2,-1.9 -4.5,-3.2 -1.3,-1.4 -2.3,-2.8 -3.1,-4.4 l 4.4,-3 c 0.5,1.4 1.3,2.6 2.2,3.6 z" id="path1771" style="fill:#5273ff"/><path class="st0" d="m 1404.7,856.6 c 1.1,1.8 2.6,3.3 4.4,4.3 1.8,1 3.8,1.5 5.9,1.5 1.7,0 3.1,-0.2 4.5,-0.6 1.3,-0.4 2.5,-1 3.6,-1.8 1.1,-0.7 2,-1.6 2.8,-2.5 v 6.9 c -1.5,1.2 -3,2.1 -4.7,2.7 -1.7,0.6 -3.8,0.9 -6.3,0.9 -2.5,0 -4.9,-0.4 -7.1,-1.3 -2.2,-0.9 -4.1,-2.1 -5.7,-3.7 -1.6,-1.6 -2.9,-3.5 -3.8,-5.7 -0.9,-2.2 -1.4,-4.6 -1.4,-7.2 0,-2.6 0.5,-5 1.4,-7.2 0.9,-2.2 2.2,-4.1 3.8,-5.7 1.6,-1.6 3.5,-2.9 5.7,-3.7 2.2,-0.9 4.6,-1.3 7.1,-1.3 2.5,0 4.7,0.3 6.3,0.9 1.7,0.6 3.3,1.5 4.7,2.7 v 6.9 c -0.8,-0.9 -1.7,-1.8 -2.8,-2.5 -1.1,-0.7 -2.3,-1.3 -3.6,-1.8 -1.3,-0.4 -2.8,-0.6 -4.5,-0.6 -2.1,0 -4.1,0.5 -5.9,1.5 -1.8,1 -3.3,2.4 -4.4,4.3 -1.1,1.8 -1.7,4 -1.7,6.5 0,2.5 0.6,4.6 1.7,6.5 z" id="path1773" style="fill:#5273ff"/><path class="st0" d="m 1432.3,843 c 0.9,-2.2 2.2,-4.1 3.8,-5.7 1.6,-1.6 3.5,-2.8 5.7,-3.7 2.2,-0.9 4.6,-1.3 7.1,-1.3 2.6,0 5,0.4 7.2,1.3 2.2,0.9 4.1,2.1 5.7,3.7 1.6,1.6 2.9,3.5 3.8,5.7 0.9,2.2 1.3,4.6 1.3,7.2 0,2.6 -0.4,5 -1.3,7.2 -0.9,2.2 -2.1,4.1 -3.8,5.7 -1.6,1.6 -3.5,2.9 -5.7,3.8 -2.2,0.9 -4.6,1.4 -7.2,1.4 -2.6,0 -5,-0.5 -7.2,-1.4 -2.2,-0.9 -4.1,-2.2 -5.7,-3.8 -1.6,-1.6 -2.8,-3.5 -3.7,-5.7 -0.9,-2.2 -1.3,-4.6 -1.3,-7.2 0,-2.7 0.4,-5.1 1.3,-7.2 z m 6.4,13.5 c 1,1.9 2.4,3.3 4.2,4.4 1.8,1.1 3.8,1.6 6.1,1.6 2.3,0 4.4,-0.5 6.1,-1.6 1.8,-1.1 3.2,-2.5 4.2,-4.4 1,-1.9 1.5,-4 1.5,-6.4 0,-2.4 -0.5,-4.5 -1.5,-6.4 -1,-1.9 -2.4,-3.3 -4.1,-4.4 -1.8,-1.1 -3.8,-1.6 -6.2,-1.6 -2.3,0 -4.3,0.5 -6.1,1.6 -1.8,1.1 -3.2,2.5 -4.2,4.4 -1,1.9 -1.5,4 -1.5,6.4 0,2.4 0.5,4.5 1.5,6.4 z" id="path1775" style="fill:#5273ff"/><path class="st0" d="m 1476.7,867.5 h -6 l 4.8,-36.4 14.2,23.5 14.3,-23.5 4.8,36.4 h -6 l -2.4,-21.1 -10.5,17.9 -10.6,-17.9 z" id="path1777" style="fill:#5273ff"/><path class="st0" d="m 1518.4,867.5 h -6 l 4.8,-36.4 14.2,23.5 14.3,-23.5 4.8,36.4 h -6 l -2.4,-21.1 -10.5,17.9 -10.6,-17.9 z" id="path1779" style="fill:#5273ff"/><path class="st0" d="m 1561.7,832.8 v 23 c 0,2.1 0.6,3.9 1.7,5.2 1.1,1.3 2.8,2 5.1,2 2.2,0 3.9,-0.7 5.1,-2 1.2,-1.3 1.7,-3 1.7,-5.2 v -23 h 5.8 v 23.3 c 0,1.9 -0.3,3.6 -0.9,5.1 -0.6,1.5 -1.5,2.8 -2.6,3.8 -1.1,1.1 -2.5,1.9 -4,2.4 -1.6,0.6 -3.3,0.8 -5.1,0.8 -1.8,0 -3.5,-0.3 -5.1,-0.8 -1.6,-0.6 -2.9,-1.4 -4,-2.4 -1.1,-1.1 -2,-2.3 -2.6,-3.8 -0.6,-1.5 -0.9,-3.2 -0.9,-5.1 v -23.3 z" id="path1781" style="fill:#5273ff"/><path class="st0" d="m 1619.6,832.8 v 36.4 l -25.3,-25 v 23.3 h -5.7 v -36.4 l 25.3,25 v -23.3 z" id="path1783" style="fill:#5273ff"/><path class="st0" d="m 1633.2,832.8 v 34.7 h -5.9 v -34.7 z" id="path1785" style="fill:#5273ff"/><path class="st0" d="m 1637.5,832.8 h 24.2 v 5.4 h -9.2 v 29.3 h -5.9 v -29.3 h -9.1 z" id="path1787" style="fill:#5273ff"/><path class="st0" d="m 1693.1,832.8 -11.8,20.1 v 14.6 h -5.9 v -14.6 l -11.7,-20.1 h 6.6 l 8.1,14.9 8.1,-14.9 z" id="path1789" style="fill:#5273ff"/></g></g><g id="g1797"><path class="st0" d="m 1604.5,629.2 c -1.3,-0.7 -2.6,-1 -3.9,-0.9 -1.3,0.1 -2.5,0.5 -3.6,1.2 -1.1,0.7 -2,1.8 -2.7,3.1 -0.7,1.3 -1.1,2.7 -1,4 0,1.3 0.4,2.6 1,3.7 0.6,1.1 1.7,2 3,2.7 1.3,0.7 2.6,1 3.9,0.9 1.3,-0.1 2.5,-0.5 3.6,-1.3 1.1,-0.8 2,-1.8 2.7,-3.1 0.7,-1.3 1.1,-2.7 1.1,-4 0,-1.3 -0.3,-2.6 -1,-3.7 -0.8,-1 -1.8,-1.9 -3.1,-2.6 z" id="path1795" style="fill:#5273ff"/></g><g id="g1801"><path class="st0" d="m 1633.7,675.9 c 0.6,0.9 1.2,1.6 1.9,2.3 0.7,0.6 1.5,1.1 2.4,1.4 0.9,0.3 1.8,0.3 2.8,0.2 1,-0.2 2.1,-0.6 3.2,-1.3 1.1,-0.7 2,-1.5 2.5,-2.3 0.6,-0.8 1,-1.7 1.1,-2.6 0.1,-0.9 0.1,-1.8 -0.2,-2.8 -0.3,-0.9 -0.7,-1.8 -1.2,-2.7 l -1.6,-2.5 -12.7,8 z" id="path1799" style="fill:#5273ff"/></g><g id="g1805"><path class="st0" d="m 1646.1,700.9 c -0.4,1.2 -0.4,2.6 0,4 0.4,1.4 1,2.6 1.9,3.5 0.9,0.9 2,1.5 3.3,1.8 1.3,0.3 2.7,0.3 4.2,-0.1 1.5,-0.4 2.7,-1 3.7,-1.9 1,-0.9 1.7,-1.9 2.1,-3.2 0.4,-1.2 0.4,-2.6 0,-4 -0.4,-1.4 -1,-2.6 -1.9,-3.5 -0.9,-0.9 -2.1,-1.5 -3.3,-1.8 -1.3,-0.3 -2.7,-0.3 -4.2,0.1 -1.5,0.4 -2.7,1 -3.7,1.9 -1.1,0.9 -1.8,2 -2.1,3.2 z" id="path1803" style="fill:#5273ff"/></g><g id="g1809"><path class="st0" d="m 1654.7,630.7 c -47.8,-47.8 -125.5,-47.8 -173.4,-0.2 l -128.5,128 c -22.6,22.5 -59.4,22.5 -82,-0.1 -22.6,-22.6 -22.6,-59.4 0,-82.1 11.3,-11.3 26.2,-17 41,-17 14.8,0 29.7,5.6 41,16.9 l 15.8,15.7 45.7,-45.7 -15.9,-15.8 c -47.8,-47.7 -125.6,-47.6 -173.4,0.2 -42.8,42.8 -47.3,109.5 -13.6,157.3 h 203.4 l 85.6,-85.3 26.5,-26.4 c 22.6,-22.5 59.4,-22.5 82,0.1 11,11 17,25.5 17,41 0,15.5 -6,30.1 -17,41 -22.6,22.6 -59.4,22.6 -82,0.1 l -16.7,-16.6 -45.7,45.7 0.3,0.3 h 203.5 c 14.5,-20.5 22.3,-44.9 22.3,-70.6 0,-32.5 -12.8,-63.3 -35.9,-86.5 z m 0.9,59.8 c 1.6,0.2 3.1,0.8 4.5,1.6 1.4,0.8 2.5,1.9 3.5,3.2 1,1.3 1.7,2.9 2.1,4.6 0.4,1.8 0.6,3.4 0.4,5.1 -0.2,1.6 -0.7,3.1 -1.5,4.5 -0.8,1.4 -1.8,2.6 -3.1,3.5 -1.3,1 -2.8,1.7 -4.6,2.1 -1.7,0.4 -3.4,0.6 -5.1,0.3 -1.6,-0.2 -3.1,-0.7 -4.5,-1.5 -1.4,-0.8 -2.6,-1.9 -3.5,-3.2 -0.9,-1.3 -1.7,-2.9 -2.2,-4.7 -0.5,-1.8 -0.6,-3.5 -0.3,-5.1 0.2,-1.6 0.7,-3.1 1.6,-4.5 0.9,-1.4 1.9,-2.6 3.2,-3.5 1.3,-1 2.9,-1.7 4.6,-2.1 1.6,-0.5 3.3,-0.6 4.9,-0.3 z m -76.4,-51.5 -5,-0.7 0.5,-13.4 -8.5,10 -5.2,-12 -3.5,13 -5,-0.7 7.2,-24.2 7.6,16.7 12.1,-13.7 z m 29.6,7 c -1.3,1.1 -2.7,1.8 -4.2,2.3 -1.5,0.5 -3.1,0.6 -4.7,0.5 -1.6,-0.2 -3.3,-0.7 -4.9,-1.5 -1.6,-0.9 -3,-1.9 -4,-3.2 -1.1,-1.3 -1.8,-2.7 -2.3,-4.2 -0.5,-1.5 -0.6,-3.1 -0.5,-4.8 0.2,-1.6 0.7,-3.2 1.5,-4.8 0.8,-1.6 1.9,-2.9 3.2,-4 1.3,-1 2.7,-1.8 4.2,-2.2 1.5,-0.5 3.1,-0.6 4.7,-0.4 1.6,0.2 3.2,0.7 4.8,1.5 1.6,0.8 2.9,1.9 4,3.1 1.1,1.2 1.8,2.6 2.3,4.1 0.5,1.5 0.7,3.1 0.5,4.7 -0.2,1.6 -0.6,3.2 -1.5,4.8 -0.8,1.7 -1.9,3 -3.1,4.1 z m 13,21 -10.4,-9.8 16.3,-17.3 3.5,3.3 -13.4,14.2 6.9,6.5 z m 8.2,11.4 -2.6,-4.2 v 0 l -1.7,-2.7 20.2,-12.6 2.3,3.7 2,3.2 c 1.3,2.1 2.1,4.2 2.2,6.3 0.2,2.1 -0.2,4.1 -1.2,5.9 -1,1.8 -2.5,3.4 -4.5,4.7 -2.1,1.3 -4.1,2 -6.2,2 -2.1,0.1 -4,-0.4 -5.8,-1.5 -1.8,-1.1 -3.3,-2.7 -4.7,-4.8 z m 7.2,89.8 1.6,-5.3 5.9,-0.8 2.4,-7.8 -4.4,-4 1.6,-5.2 20.5,19 z m 31.2,-27.4 -0.3,5.6 -24.6,-13.2 25.7,-10.9 -0.3,5.6 -15.8,5.7 z" id="path1807" style="fill:#5273ff"/></g><g id="g1813"><polygon class="st0" points="1656.2,761.5 1650.5,756.6 1648.8,762.3 " id="polygon1811" style="fill:#5273ff"/></g></g></g></svg>