<svg xmlns="http://www.w3.org/2000/svg" viewBox="0 0 169.6 58.11"><path d="M159.8,36.21h13.68c10.75,0,18,6.91,18,16.8s-7.25,16.8-18,16.8H159.8Zm13.49,30.53C182.22,66.74,188,61.08,188,53s-5.76-13.73-14.69-13.73h-9.94V66.74Z" transform="translate(-159.8 -35.92)"/><path d="M215.89,67.51v2.3H198.08V44.62h17.27v2.3H200.74v9h13v2.27h-13v9.36Z" transform="translate(-159.8 -35.92)"/><path d="M242.75,44.62,231.59,69.81H229L217.8,44.62h2.88l9.65,21.88,9.72-21.88Z" transform="translate(-159.8 -35.92)"/><path d="M245.32,53c0-9.79,7.49-17.09,17.67-17.09S280.6,43.17,280.6,53,273.07,70.1,263,70.1,245.32,62.8,245.32,53Zm31.73,0A13.61,13.61,0,0,0,263,39.09c-8.12,0-14.17,5.91-14.17,13.92S254.87,66.93,263,66.93,277.05,61,277.05,53Z" transform="translate(-159.8 -35.92)"/><path d="M306.92,53.26c0,5.36-3.88,8.6-10.29,8.6h-6.77v8H287.2V44.62h9.43C303,44.62,306.92,47.86,306.92,53.26Zm-2.66,0c0-4-2.66-6.34-7.7-6.34h-6.7v12.6h6.7C301.6,59.52,304.26,57.21,304.26,53.26Z" transform="translate(-159.8 -35.92)"/><path d="M310.63,66.75l1.05-2A12.33,12.33,0,0,0,320,67.76c4.72,0,6.77-2,6.77-4.46,0-6.91-15.51-2.67-15.51-12,0-3.71,2.88-6.91,9.28-6.91a14.22,14.22,0,0,1,7.81,2.23l-.9,2.13a12.87,12.87,0,0,0-6.91-2.09c-4.6,0-6.66,2-6.66,4.57,0,6.91,15.52,2.74,15.52,11.91,0,3.71-2.95,6.88-9.4,6.88C316.21,70,312.51,68.7,310.63,66.75Z" transform="translate(-159.8 -35.92)"/><path d="M179.69,76.7V94h-.58V77.76l-9.18,13.76h-.35L160.4,77.81V94h-.57V76.7h.49l9.44,14.15L179.2,76.7Z" transform="translate(-159.8 -35.92)"/><path d="M188.56,85.33c0-5,4.43-8.7,10.33-8.7s10.33,3.72,10.33,8.7S204.79,94,198.89,94,188.56,90.31,188.56,85.33Zm20.08,0c0-4.71-4.2-8.24-9.75-8.24s-9.76,3.53-9.76,8.24,4.2,8.24,9.76,8.24S208.64,90,208.64,85.33Z" transform="translate(-159.8 -35.92)"/><path d="M218.09,76.7h.57V93.49h12V94H218.09Z" transform="translate(-159.8 -35.92)"/><path d="M238.12,76.7h7.63c6.36,0,10.62,3.65,10.62,8.63S252.11,94,245.75,94h-7.63Zm7.57,16.79c6.16,0,10.1-3.45,10.1-8.16s-3.94-8.16-10.1-8.16h-7V93.49Z" transform="translate(-159.8 -35.92)"/><path d="M263.11,85.33c0-5,4.43-8.7,10.33-8.7s10.33,3.72,10.33,8.7S279.34,94,273.44,94,263.11,90.31,263.11,85.33Zm20.09,0c0-4.71-4.21-8.24-9.76-8.24s-9.76,3.53-9.76,8.24,4.21,8.24,9.76,8.24S283.2,90,283.2,85.33Z" transform="translate(-159.8 -35.92)"/><path d="M307.23,76.7,298.17,94h-.58L288.53,76.7h.66l8.69,16.59,8.69-16.59Z" transform="translate(-159.8 -35.92)"/><path d="M325.92,88.76H313.6L310.78,94h-.66l9.35-17.26H320L329.4,94h-.66Zm-.26-.47-5.9-10.92-5.9,10.92Z" transform="translate(-159.8 -35.92)"/></svg>
