<svg xmlns="http://www.w3.org/2000/svg" xmlns:xlink="http://www.w3.org/1999/xlink" version="1.1" x="0px" y="0px" viewBox="0 0 960 560" style="enable-background:new 0 0 960 560;" xml:space="preserve">
<style type="text/css">
	.st0{fill:url(#SVGID_1_);}
	.st1{fill:#004A77;}
	.st2{fill:url(#SVGID_2_);}
	.st3{fill:url(#SVGID_3_);}
	.st4{fill:url(#SVGID_4_);}
	.st5{fill:#3FA9F5;}
</style>
<g id="Layer_2">
</g>
<g id="Layer_1">
	<g>
		<g>
			<g>
				<polygon points="578,181.6 598.8,181.6 595.5,202.4 581.3,202.4     "/>
			</g>
			<g>
				<polygon points="627,194.6 643,207.9 627,221.7 616.2,212.6     "/>
			</g>
			<g>
				<polygon points="656.3,236 659.9,256.5 638.8,256.8 636.3,242.9     "/>
			</g>
			<g>
				<polygon points="652,286.5 641.6,304.5 625.3,291.2 632.3,279     "/>
			</g>
			<g>
				<polygon points="616.3,322.5 596.8,329.6 592.8,308.9 606.1,304.1     "/>
			</g>
			<g>
				<polygon points="565.8,327.1 546.3,320 556.5,301.6 569.8,306.4     "/>
			</g>
			<g>
				<polygon points="524.2,298.2 513.8,280.2 533.5,272.7 540.5,284.9     "/>
			</g>
			<g>
				<polygon points="510.9,249.3 514.5,228.8 534.4,235.7 531.9,249.6     "/>
			</g>
			<g>
				<polygon points="532.1,203.2 548.1,189.9 558.9,207.9 548,217     "/>
			</g>
			<g>
				<polygon points="578,181.6 598.8,181.6 595.5,202.4 581.3,202.4     "/>
			</g>
		</g>
		<path d="M584.3,165.7c25.9,0,47.6,8.7,65.1,25.9c17.5,17.3,26.2,38.6,26.2,63.9c0,25.1-8.7,46.3-26.1,63.8    c-17.4,17.5-38.7,26.2-63.7,26.2c-25.4,0-46.8-8.7-64.3-26.1c-17.5-17.4-26.2-38.4-26.2-63.1c0-16.4,4-31.7,11.9-45.7    c8-14,18.8-25,32.5-33C553.4,169.7,568.3,165.7,584.3,165.7z M585,182.4c-12.7,0-24.7,3.3-36,9.9c-11.3,6.6-20.2,15.5-26.6,26.7    c-6.4,11.2-9.6,23.6-9.6,37.4c0,20.3,7.1,37.5,21.2,51.5c14.1,14,31.1,21,51,21c13.3,0,25.6-3.2,36.9-9.7    c11.3-6.4,20.1-15.3,26.5-26.4c6.3-11.2,9.5-23.6,9.5-37.3c0-13.6-3.2-25.9-9.5-36.9c-6.3-11-15.2-19.8-26.7-26.4    C610.1,185.7,597.9,182.4,585,182.4z"/>
		<g>
			<g>
				<radialGradient id="SVGID_1_" cx="584.8755" cy="255.4495" r="83.3893" gradientUnits="userSpaceOnUse">
					<stop offset="0" style="stop-color:#FFFFFF"/>
					<stop offset="2.049065e-002" style="stop-color:#F4FBFE"/>
					<stop offset="0.1353" style="stop-color:#BCE8F6"/>
					<stop offset="0.2536" style="stop-color:#8AD7F0"/>
					<stop offset="0.3728" style="stop-color:#5FC9EA"/>
					<stop offset="0.493" style="stop-color:#3DBDE6"/>
					<stop offset="0.6147" style="stop-color:#22B4E2"/>
					<stop offset="0.7382" style="stop-color:#0FADE0"/>
					<stop offset="0.865" style="stop-color:#04A9DE"/>
					<stop offset="1" style="stop-color:#00A8DE"/>
				</radialGradient>
				<path class="st0" d="M584.9,338.8c-46,0-83.4-37.4-83.4-83.4c0-46,37.4-83.4,83.4-83.4c46,0,83.4,37.4,83.4,83.4      C668.3,301.4,630.9,338.8,584.9,338.8z"/>
				<path class="st1" d="M584.9,182.1c40.5,0,73.4,32.9,73.4,73.4s-32.9,73.4-73.4,73.4c-40.5,0-73.4-32.9-73.4-73.4      S544.3,182.1,584.9,182.1 M584.9,162.1c-51.5,0-93.4,41.9-93.4,93.4s41.9,93.4,93.4,93.4s93.4-41.9,93.4-93.4      S636.4,162.1,584.9,162.1L584.9,162.1z"/>
			</g>
			<g>
				<g>
					<radialGradient id="SVGID_2_" cx="574.3412" cy="283.6789" r="42.4932" gradientUnits="userSpaceOnUse">
						<stop offset="0" style="stop-color:#FFFFFF"/>
						<stop offset="2.049065e-002" style="stop-color:#F4FBFE"/>
						<stop offset="0.1353" style="stop-color:#BCE8F6"/>
						<stop offset="0.2536" style="stop-color:#8AD7F0"/>
						<stop offset="0.3728" style="stop-color:#5FC9EA"/>
						<stop offset="0.493" style="stop-color:#3DBDE6"/>
						<stop offset="0.6147" style="stop-color:#22B4E2"/>
						<stop offset="0.7382" style="stop-color:#0FADE0"/>
						<stop offset="0.865" style="stop-color:#04A9DE"/>
						<stop offset="1" style="stop-color:#00A8DE"/>
					</radialGradient>
					<path class="st2" d="M616.8,289.1v-10.3l-12.3-3c-0.8-3.1-2-6-3.7-8.7l6.5-9.6l-7.3-7.3l-10.2,6.1c-2.5-1.5-5.3-2.7-8.2-3.4       l-2.3-11.7h-10.3l-2.9,11.6c-3.2,0.8-6.2,2-9,3.7l-9.8-6.6l-7.3,7.3l6.1,10.2c-1.6,2.7-2.9,5.7-3.7,8.9l-10.9,2.1v10.3       l10.9,2.7c0.8,3.1,2,6.1,3.6,8.8l-6.7,9.9l7.3,7.3l10.3-6.2c2.8,1.7,5.9,3,9.3,3.8l2.2,11.4h10.3l2.9-11.6c3-0.8,5.9-2,8.4-3.6       l9.8,6.6l7.3-7.3l-6.2-10.2c1.6-2.6,2.8-5.5,3.5-8.6L616.8,289.1z M574.1,305.2c-11.6,0-21-9.4-21-21c0-11.6,9.4-21,21-21       c11.6,0,21,9.4,21,21C595.2,295.8,585.7,305.2,574.1,305.2z"/>
				</g>
				<g>
					<radialGradient id="SVGID_3_" cx="599.2811" cy="221.9116" r="29.1959" gradientUnits="userSpaceOnUse">
						<stop offset="0" style="stop-color:#FFFFFF"/>
						<stop offset="2.049065e-002" style="stop-color:#F4FBFE"/>
						<stop offset="0.1353" style="stop-color:#BCE8F6"/>
						<stop offset="0.2536" style="stop-color:#8AD7F0"/>
						<stop offset="0.3728" style="stop-color:#5FC9EA"/>
						<stop offset="0.493" style="stop-color:#3DBDE6"/>
						<stop offset="0.6147" style="stop-color:#22B4E2"/>
						<stop offset="0.7382" style="stop-color:#0FADE0"/>
						<stop offset="0.865" style="stop-color:#04A9DE"/>
						<stop offset="1" style="stop-color:#00A8DE"/>
					</radialGradient>
					<path class="st3" d="M628.5,213.4l-2.9-6.7l-8.8,1.4c-1.4-1.8-3-3.3-4.8-4.6l1.5-8.1l-6.7-2.7l-4.9,6.8       c-2.1-0.3-4.2-0.3-6.2,0.1l-4.8-7l-6.7,2.9l1.4,8.3c-1.9,1.4-3.5,3-4.8,4.9l-8.2-1.5L570,214l6.8,4.9c-0.3,2.2-0.3,4.5,0.1,6.8       l-6.5,4.4l2.9,6.7l7.8-1.3c1.4,1.8,3,3.4,4.7,4.7l-1.6,8.3l6.7,2.7l4.9-6.9c2.3,0.3,4.7,0.3,7.1-0.1l4.6,6.8l6.7-2.9l-1.4-8.3       c1.7-1.4,3.2-2.9,4.5-4.7l8.1,1.5l2.7-6.7l-6.8-4.9c0.3-2.1,0.3-4.3-0.1-6.5L628.5,213.4z M605.4,235.7       c-7.5,3.2-16.3-0.2-19.5-7.8c-3.2-7.5,0.2-16.2,7.8-19.5c7.5-3.2,16.3,0.2,19.5,7.8C616.4,223.8,612.9,232.5,605.4,235.7z"/>
				</g>
				<g>
					<radialGradient id="SVGID_4_" cx="631.678" cy="262.0696" r="20.1259" gradientUnits="userSpaceOnUse">
						<stop offset="0" style="stop-color:#FFFFFF"/>
						<stop offset="2.049065e-002" style="stop-color:#F4FBFE"/>
						<stop offset="0.1353" style="stop-color:#BCE8F6"/>
						<stop offset="0.2536" style="stop-color:#8AD7F0"/>
						<stop offset="0.3728" style="stop-color:#5FC9EA"/>
						<stop offset="0.493" style="stop-color:#3DBDE6"/>
						<stop offset="0.6147" style="stop-color:#22B4E2"/>
						<stop offset="0.7382" style="stop-color:#0FADE0"/>
						<stop offset="0.865" style="stop-color:#04A9DE"/>
						<stop offset="1" style="stop-color:#00A8DE"/>
					</radialGradient>
					<path class="st4" d="M651.8,256.2l-2-4.6l-6.1,1c-1-1.2-2.1-2.3-3.3-3.2l1-5.6l-4.6-1.8l-3.4,4.7c-1.4-0.2-2.9-0.2-4.3,0       L626,242l-4.6,2l0.9,5.7c-1.3,1-2.4,2.1-3.3,3.4l-5.6-1.1l-1.8,4.6l4.7,3.4c-0.2,1.5-0.2,3.1,0.1,4.7l-4.5,3.1l2,4.6l5.4-0.9       c0.9,1.2,2,2.3,3.3,3.2l-1.1,5.7l4.6,1.8l3.4-4.7c1.6,0.2,3.2,0.2,4.9-0.1l3.2,4.7l4.6-2l-0.9-5.7c1.2-0.9,2.2-2,3.1-3.2       l5.6,1.1l1.8-4.6l-4.7-3.4c0.2-1.5,0.2-3-0.1-4.5L651.8,256.2z M635.9,271.6c-5.2,2.2-11.2-0.2-13.4-5.4       c-2.2-5.2,0.2-11.2,5.4-13.4c5.2-2.2,11.2,0.2,13.4,5.4C643.5,263.3,641.1,269.4,635.9,271.6z"/>
				</g>
			</g>
		</g>
		<path class="st1" d="M38.5,341.2V170H74c25.6,0,44.2,2.1,55.7,6.2c16.6,5.8,29.6,15.9,38.9,30.3c9.3,14.4,14,31.5,14,51.3    c0,17.1-3.7,32.2-11.1,45.3c-7.4,13-17,22.7-28.9,28.9c-11.8,6.2-28.4,9.3-49.7,9.3H38.5z M54.9,325h19.8    c23.7,0,40.1-1.5,49.2-4.4c12.9-4.2,23-11.7,30.4-22.6c7.4-10.9,11.1-24.2,11.1-39.9c0-16.5-4-30.6-12-42.3    c-8-11.7-19.1-19.7-33.4-24.1c-10.7-3.3-28.4-4.9-52.9-4.9H54.9V325z"/>
		<path class="st1" d="M319.7,299.2l13.7,7.2c-4.5,8.8-9.7,16-15.6,21.4c-5.9,5.4-12.5,9.6-19.9,12.4c-7.4,2.8-15.7,4.2-25,4.2    c-20.7,0-36.8-6.8-48.4-20.3c-11.6-13.5-17.5-28.8-17.5-45.9c0-16.1,4.9-30.4,14.8-42.9c12.5-16,29.2-24,50.2-24    c21.6,0,38.8,8.2,51.7,24.6c9.2,11.6,13.8,26,14,43.3H223.7c0.3,14.7,5,26.8,14.1,36.2c9.1,9.4,20.3,14.1,33.7,14.1    c6.4,0,12.7-1.1,18.8-3.4c6.1-2.2,11.3-5.2,15.6-8.9C310.1,313.5,314.8,307.5,319.7,299.2z M319.7,265.1    c-2.2-8.7-5.3-15.6-9.5-20.8c-4.2-5.2-9.6-9.4-16.5-12.6c-6.8-3.2-14-4.8-21.6-4.8c-12.4,0-23.1,4-32,12    c-6.5,5.8-11.5,14.5-14.8,26.2H319.7z"/>
		<path class="st1" d="M356,214.6h17.3l42.5,92.3l42-92.3h17.5l-57.9,126.6h-3L356,214.6z"/>
		<path class="st1" d="M707.4,214.6h16.3v23.3c6.4-8.8,13.8-15.5,22.2-19.9c8.4-4.4,17.7-6.6,28-6.6c18,0,33.4,6.5,46.1,19.4    c12.8,13,19.2,28.5,19.2,46.8c0,18.6-6.3,34.4-19,47.4c-12.7,13-28,19.5-45.9,19.5c-10.1,0-19.3-2.1-27.8-6.3    c-8.4-4.2-16.1-10.4-22.9-18.7v68.1h-16.3V214.6z M772.6,227.1c-14.1,0-25.9,4.9-35.6,14.8c-9.6,9.8-14.5,22.1-14.5,36.7    c0,9.6,2.1,18.2,6.4,25.9c4.3,7.7,10.4,13.8,18.5,18.2c8,4.5,16.5,6.7,25.4,6.7c8.7,0,17-2.3,24.7-6.8c7.7-4.5,13.8-10.9,18.4-19    c4.6-8.1,6.8-16.7,6.8-25.6c0-9-2.3-17.5-6.8-25.6c-4.5-8.1-10.6-14.3-18.3-18.8S781.6,227.1,772.6,227.1z"/>
		<path class="st1" d="M933.4,228.5l-10.5,10.8c-8.7-8.5-17.2-12.7-25.5-12.7c-5.3,0-9.8,1.7-13.6,5.2c-3.8,3.5-5.7,7.6-5.7,12.2    c0,4.1,1.6,8,4.7,11.8c3.1,3.8,9.6,8.3,19.6,13.4c12.1,6.3,20.4,12.3,24.7,18.2c4.3,5.9,6.4,12.5,6.4,19.9    c0,10.4-3.7,19.2-11,26.4c-7.3,7.2-16.4,10.8-27.4,10.8c-7.3,0-14.3-1.6-20.9-4.8c-6.6-3.2-12.1-7.6-16.5-13.1l10.2-11.6    c8.3,9.4,17.1,14.1,26.5,14.1c6.5,0,12.1-2.1,16.7-6.3c4.6-4.2,6.9-9.1,6.9-14.8c0-4.7-1.5-8.8-4.5-12.4c-3-3.6-9.9-8.1-20.5-13.5    c-11.4-5.9-19.2-11.7-23.3-17.5c-4.1-5.7-6.2-12.3-6.2-19.7c0-9.6,3.3-17.6,9.8-24c6.6-6.4,14.9-9.5,24.9-9.5    C909.8,211.3,921.6,217,933.4,228.5z"/>
	</g>
	<g>
		<g>
			<polygon class="st5" points="1303.6,-194.3 1221.5,-194.3 1236.6,-276.3 1288.5,-276.3    "/>
		</g>
		<g>
			<polygon class="st5" points="1444.1,-272.9 1381.2,-220.2 1340.1,-292.7 1379.8,-326    "/>
		</g>
		<g>
			<polygon class="st5" points="1501.2,-423.4 1486.9,-342.6 1408.8,-371.7 1417.8,-422.8    "/>
		</g>
		<g>
			<polygon class="st5" points="1448.2,-575.4 1489.2,-504.4 1410.6,-476.4 1384.7,-521.3    "/>
		</g>
		<g>
			<polygon class="st5" points="1309.9,-657.8 1386.9,-629.7 1344.7,-557.8 1296,-575.5    "/>
		</g>
		<g>
			<polygon class="st5" points="1150.9,-632 1228,-660 1241.9,-577.8 1193.2,-560.1    "/>
		</g>
		<g>
			<polygon class="st5" points="1045.8,-510.1 1086.8,-581.1 1150.3,-527 1124.4,-482.1    "/>
		</g>
		<g>
			<polygon class="st5" points="1043.6,-349.1 1029.4,-429.9 1112.8,-429.3 1121.8,-378.2    "/>
		</g>
		<g>
			<polygon class="st5" points="1145.4,-224.4 1082.6,-277.1 1146.9,-330.2 1186.6,-296.9    "/>
		</g>
		<g>
			<polygon class="st5" points="1303.6,-194.3 1221.5,-194.3 1236.6,-276.3 1288.5,-276.3    "/>
		</g>
	</g>
</g>
</svg>
