<svg xmlns="http://www.w3.org/2000/svg" width="156" height="48" viewBox="0 0 156 48" fill="none"><path fill-rule="evenodd" clip-rule="evenodd" d="M48 0H0V48H48V0ZM33.7834 16.3567L18.8025 25.9873L20.9427 29.1975L25.0701 26.5987V36.0764H28.8917V29.6561L35.9236 41.2739L41.121 41.3406V29.9618H37.1465V35.9236L30.1147 23.3885L35.9236 19.5669L33.7834 16.3567Z" fill="#ECE142"/><path d="M18.8025 25.9873L33.7834 16.3567L35.9236 19.5669L30.1147 23.3885L37.1465 35.9236V29.9618H41.121V41.3406L35.9236 41.2739L28.8917 29.6561V36.0764H25.0701V26.5987L20.9427 29.1975L18.8025 25.9873Z" fill="#232324"/><path d="M68.03 20.5V22.174H65.546V26.134C65.546 26.494 65.552 26.794 65.564 27.034C65.588 27.274 65.636 27.46 65.708 27.592C65.78 27.724 65.882 27.82 66.014 27.88C66.146 27.928 66.32 27.952 66.536 27.952L68.012 27.898L68.102 29.464C67.322 29.62 66.71 29.698 66.266 29.698C65.762 29.698 65.336 29.644 64.988 29.536C64.652 29.428 64.376 29.248 64.16 28.996C63.956 28.744 63.812 28.402 63.728 27.97C63.644 27.538 63.602 26.998 63.602 26.35V22.174H62.45V20.5H63.602V17.89H65.546V20.5H68.03ZM76.0472 27.88L76.5512 27.826L76.5872 29.284C75.9032 29.416 75.2612 29.518 74.6612 29.59C74.0612 29.662 73.4912 29.698 72.9512 29.698C71.6192 29.698 70.6592 29.332 70.0712 28.6C69.4952 27.868 69.2072 26.698 69.2072 25.09C69.2072 21.898 70.5092 20.302 73.1132 20.302C75.6332 20.302 76.8932 21.676 76.8932 24.424L76.7672 25.828H71.1872C71.1992 26.572 71.3612 27.118 71.6732 27.466C71.9852 27.814 72.5672 27.988 73.4192 27.988C74.2712 27.988 75.1472 27.952 76.0472 27.88ZM71.1692 24.316H74.9672C74.9672 23.416 74.8292 22.792 74.5532 22.444C74.2772 22.096 73.7972 21.922 73.1132 21.922C72.4292 21.922 71.9372 22.108 71.6372 22.48C71.3372 22.84 71.1812 23.452 71.1692 24.316ZM82.1458 20.302C82.7458 20.302 83.4958 20.386 84.3958 20.554L84.8458 20.644L84.7738 22.192C84.2938 22.144 83.8798 22.108 83.5318 22.084C83.1838 22.06 82.8958 22.048 82.6678 22.048C82.2118 22.048 81.8338 22.096 81.5338 22.192C81.2458 22.276 81.0118 22.432 80.8318 22.66C80.6638 22.888 80.5438 23.188 80.4718 23.56C80.3998 23.932 80.3638 24.4 80.3638 24.964C80.3638 25.528 80.3938 26.002 80.4538 26.386C80.5258 26.758 80.6458 27.064 80.8138 27.304C80.9818 27.532 81.2158 27.7 81.5158 27.808C81.8278 27.904 82.2178 27.952 82.6858 27.952L84.7918 27.808L84.8458 29.374C83.6458 29.59 82.7338 29.698 82.1098 29.698C81.4258 29.698 80.8438 29.608 80.3638 29.428C79.8958 29.248 79.5118 28.972 79.2118 28.6C78.9238 28.216 78.7138 27.724 78.5818 27.124C78.4498 26.524 78.3838 25.804 78.3838 24.964C78.3838 24.124 78.4558 23.41 78.5998 22.822C78.7438 22.222 78.9658 21.736 79.2658 21.364C79.5658 20.992 79.9558 20.722 80.4358 20.554C80.9158 20.386 81.4858 20.302 82.1458 20.302ZM88.7047 22.444V29.5H86.7427V16.756H88.7047V20.968C89.5807 20.524 90.4027 20.302 91.1707 20.302C91.7707 20.302 92.2687 20.386 92.6647 20.554C93.0607 20.71 93.3787 20.968 93.6187 21.328C93.8587 21.676 94.0267 22.126 94.1227 22.678C94.2307 23.23 94.2847 23.896 94.2847 24.676V29.5H92.3227V24.73C92.3227 24.238 92.2987 23.824 92.2507 23.488C92.2147 23.152 92.1367 22.876 92.0167 22.66C91.8967 22.444 91.7287 22.288 91.5127 22.192C91.3087 22.096 91.0447 22.048 90.7207 22.048C90.1327 22.048 89.5567 22.144 88.9927 22.336L88.7047 22.444ZM98.5309 22.516V29.5H96.5689V20.5H98.5129V21.058C99.4009 20.554 100.229 20.302 100.997 20.302C101.597 20.302 102.095 20.386 102.491 20.554C102.887 20.71 103.205 20.968 103.445 21.328C103.685 21.676 103.853 22.126 103.949 22.678C104.057 23.23 104.111 23.896 104.111 24.676V29.5H102.167V24.73C102.167 24.238 102.143 23.824 102.095 23.488C102.047 23.152 101.963 22.876 101.843 22.66C101.735 22.444 101.573 22.288 101.357 22.192C101.153 22.096 100.889 22.048 100.565 22.048C99.9649 22.048 99.3769 22.168 98.8009 22.408L98.5309 22.516ZM109.977 20.302C111.417 20.302 112.443 20.692 113.055 21.472C113.679 22.252 113.991 23.422 113.991 24.982C113.991 25.762 113.919 26.446 113.775 27.034C113.631 27.622 113.403 28.114 113.091 28.51C112.779 28.906 112.365 29.206 111.849 29.41C111.345 29.602 110.721 29.698 109.977 29.698C109.245 29.698 108.621 29.602 108.105 29.41C107.589 29.206 107.175 28.906 106.863 28.51C106.551 28.114 106.323 27.622 106.179 27.034C106.035 26.446 105.963 25.762 105.963 24.982C105.963 24.274 106.029 23.632 106.161 23.056C106.293 22.48 106.509 21.988 106.809 21.58C107.121 21.172 107.535 20.86 108.051 20.644C108.567 20.416 109.209 20.302 109.977 20.302ZM108.357 27.322C108.621 27.802 109.161 28.042 109.977 28.042C110.373 28.042 110.703 27.988 110.967 27.88C111.231 27.76 111.441 27.574 111.597 27.322C111.753 27.07 111.861 26.752 111.921 26.368C111.981 25.972 112.011 25.504 112.011 24.964C112.011 23.872 111.861 23.098 111.561 22.642C111.273 22.186 110.745 21.958 109.977 21.958C109.209 21.958 108.675 22.186 108.375 22.642C108.087 23.098 107.943 23.872 107.943 24.964C107.943 26.044 108.081 26.83 108.357 27.322ZM117.416 29.5L115.094 20.5H117.146L118.874 27.826H119.45L121.25 20.5H123.248L120.908 29.5H117.416ZM131.442 23.272V27.376C131.454 27.64 131.52 27.838 131.64 27.97C131.772 28.09 131.97 28.168 132.234 28.204L132.18 29.698C131.136 29.698 130.338 29.476 129.786 29.032C128.85 29.476 127.884 29.698 126.888 29.698C125.1 29.698 124.206 28.744 124.206 26.836C124.206 25.924 124.446 25.264 124.926 24.856C125.406 24.448 126.156 24.202 127.176 24.118L129.498 23.92V23.272C129.498 22.792 129.39 22.456 129.174 22.264C128.97 22.072 128.664 21.976 128.256 21.976C127.872 21.976 127.44 21.988 126.96 22.012C126.48 22.036 125.952 22.072 125.376 22.12L124.8 22.156L124.728 20.77C126.072 20.458 127.278 20.302 128.346 20.302C129.45 20.302 130.242 20.536 130.722 21.004C131.202 21.472 131.442 22.228 131.442 23.272ZM129.498 25.306L127.41 25.504C126.582 25.576 126.168 26.026 126.168 26.854C126.168 27.682 126.534 28.096 127.266 28.096C127.89 28.096 128.526 28 129.174 27.808L129.498 27.7V25.306ZM138.747 20.5V22.174H136.263V26.134C136.263 26.494 136.269 26.794 136.281 27.034C136.305 27.274 136.353 27.46 136.425 27.592C136.497 27.724 136.599 27.82 136.731 27.88C136.863 27.928 137.037 27.952 137.253 27.952L138.729 27.898L138.819 29.464C138.039 29.62 137.427 29.698 136.983 29.698C136.479 29.698 136.053 29.644 135.705 29.536C135.369 29.428 135.093 29.248 134.877 28.996C134.673 28.744 134.529 28.402 134.445 27.97C134.361 27.538 134.319 26.998 134.319 26.35V22.174H133.167V20.5H134.319V17.89H136.263V20.5H138.747ZM143.938 20.302C145.378 20.302 146.404 20.692 147.016 21.472C147.64 22.252 147.952 23.422 147.952 24.982C147.952 25.762 147.88 26.446 147.736 27.034C147.592 27.622 147.364 28.114 147.052 28.51C146.74 28.906 146.326 29.206 145.81 29.41C145.306 29.602 144.682 29.698 143.938 29.698C143.206 29.698 142.582 29.602 142.066 29.41C141.55 29.206 141.136 28.906 140.824 28.51C140.512 28.114 140.284 27.622 140.14 27.034C139.996 26.446 139.924 25.762 139.924 24.982C139.924 24.274 139.99 23.632 140.122 23.056C140.254 22.48 140.47 21.988 140.77 21.58C141.082 21.172 141.496 20.86 142.012 20.644C142.528 20.416 143.17 20.302 143.938 20.302ZM142.318 27.322C142.582 27.802 143.122 28.042 143.938 28.042C144.334 28.042 144.664 27.988 144.928 27.88C145.192 27.76 145.402 27.574 145.558 27.322C145.714 27.07 145.822 26.752 145.882 26.368C145.942 25.972 145.972 25.504 145.972 24.964C145.972 23.872 145.822 23.098 145.522 22.642C145.234 22.186 144.706 21.958 143.938 21.958C143.17 21.958 142.636 22.186 142.336 22.642C142.048 23.098 141.904 23.872 141.904 24.964C141.904 26.044 142.042 26.83 142.318 27.322ZM151.863 29.5H149.901V20.5H151.845V21.58C152.853 20.932 153.873 20.506 154.905 20.302V22.264C153.909 22.456 153.027 22.72 152.259 23.056L151.863 23.218V29.5Z" fill="white"/></svg>