<?xml version="1.0" encoding="utf-8"?>
<!-- Generator: Adobe Illustrator 24.1.0, SVG Export Plug-In . SVG Version: 6.00 Build 0)  -->
<svg version="1.1" id="LOGOS" xmlns="http://www.w3.org/2000/svg" xmlns:xlink="http://www.w3.org/1999/xlink" x="0px" y="0px"
	 viewBox="0 0 372.2 132" style="enable-background:new 0 0 372.2 132;" xml:space="preserve">
<style type="text/css">
	.st0{fill-rule:evenodd;clip-rule:evenodd;fill:#623CE4;}
	.st1{fill-rule:evenodd;clip-rule:evenodd;fill:#3C2AA8;}
</style>
<path d="M128.3,64.1h-11.3v-6.7h30.1v6.7h-11.2v33.6h-7.6V64.1z"/>
<path d="M155.1,92.2c3.1,0,6.1-0.5,9-1.4l1.1,5.6c-3.5,1.3-7.1,1.9-10.8,1.9c-9.2,0-12.5-4.3-12.5-11.4v-7.8
	c0-6.2,2.8-11.5,12.2-11.5s11.6,5.5,11.6,11.9v6.3h-16.4v1.5C149.4,90.8,150.7,92.2,155.1,92.2z M149.4,79.8h9.4v-1.4
	c0-2.8-0.8-4.7-4.5-4.7s-4.9,1.9-4.9,4.7V79.8z"/>
<path d="M185.5,74.4c-2.7,1.2-5.3,2.7-7.8,4.3v19h-7.4V68.2h6.2l0.5,3.3c2.4-1.6,5-2.9,7.8-3.9L185.5,74.4z"/>
<path d="M203.5,74.4c-2.7,1.2-5.3,2.7-7.8,4.3v19h-7.4V68.2h6.2l0.5,3.3c2.4-1.6,5-2.9,7.7-3.9L203.5,74.4z"/>
<path d="M228.2,97.7h-6.1l-0.5-2c-2.6,1.7-5.7,2.6-8.8,2.6c-5.4,0-7.7-3.7-7.7-8.8c0-6,2.6-8.3,8.6-8.3h7.1v-3.1
	c0-3.3-0.9-4.4-5.6-4.4c-2.7,0-5.5,0.3-8.2,0.9l-0.9-5.6c3.3-0.9,6.7-1.4,10.1-1.4c9.3,0,12,3.3,12,10.7L228.2,97.7z M220.8,86.6
	h-5.4c-2.4,0-3.1,0.7-3.1,2.9c0,2.1,0.7,3,3,3c2,0,3.9-0.6,5.6-1.5L220.8,86.6z"/>
<path d="M250.9,61.5c-1.4-0.3-2.8-0.5-4.2-0.5c-2.9,0-3.3,1.3-3.3,3.5v3.7h7.5l-0.4,5.9h-7.1v23.6H236V74.1h-4.7v-5.9h4.7v-4.1
	c0-6.1,2.8-9.1,9.3-9.1c2.1,0,4.3,0.3,6.4,0.8L250.9,61.5z"/>
<path d="M265.3,98.3c-10.1,0-12.8-5.6-12.8-11.6v-7.4c0-6,2.7-11.6,12.8-11.6s12.8,5.6,12.8,11.6v7.4
	C278.1,92.7,275.4,98.3,265.3,98.3z M265.3,73.9c-3.9,0-5.4,1.8-5.4,5.1v7.9c0,3.3,1.5,5.1,5.4,5.1s5.4-1.8,5.4-5.1V79
	C270.7,75.7,269.2,73.9,265.3,73.9z"/>
<path d="M297.1,74.4c-2.7,1.2-5.3,2.7-7.8,4.3v19h-7.4V68.2h6.2l0.5,3.3c2.4-1.6,5-2.9,7.7-3.9L297.1,74.4z"/>
<path d="M317.4,97.7V77.1c0-1.6-0.7-2.4-2.4-2.4s-5,1.1-7.7,2.5v20.4H300V68.2h5.6l0.7,2.5c3.7-1.8,7.7-2.9,11.8-3.1
	c2.8,0,4.6,1.2,5.6,3.2c3.7-1.9,7.7-3,11.9-3.2c4.9,0,6.7,3.4,6.7,8.7v21.4h-7.4V77.1c0-1.6-0.7-2.4-2.4-2.4
	c-2.7,0.3-5.3,1.1-7.7,2.5v20.4H317.4z"/>
<polygon class="st0" points="51.8,49.5 71.5,60.9 71.5,83.6 51.8,72.2 "/>
<polygon class="st1" points="73.7,60.9 73.7,83.6 93.3,72.2 93.3,49.5 "/>
<polygon class="st0" points="30,36.8 30,59.6 49.7,70.9 49.7,48.2 "/>
<polygon class="st0" points="51.8,97.5 71.5,108.8 71.5,86.2 71.5,86.1 51.8,74.7 "/>
<path d="M124.9,47.4v-5.7h-5.2v5.7h-2.6V33.8h2.6v5.7h5.2v-5.7h2.6v13.6H124.9z M137.2,47.4h-2.1l-0.2-0.7c-0.9,0.6-1.9,0.9-3,0.9
	c-1.9,0-2.7-1.2-2.7-2.9c0-2,0.9-2.8,3-2.8h2.5v-1c0-1.1-0.3-1.5-2-1.5c-1,0-1.9,0.1-2.8,0.3l-0.3-1.9c1.1-0.3,2.3-0.5,3.5-0.5
	c3.2,0,4.1,1.1,4.1,3.5L137.2,47.4z M134.6,43.7h-1.9c-0.8,0-1.1,0.2-1.1,1s0.2,1,1,1c0.7,0,1.3-0.2,1.9-0.5L134.6,43.7z
	 M142.6,47.6c-1.2,0-2.4-0.2-3.5-0.6l0.4-1.9c1,0.3,2,0.4,3,0.4c1.1,0,1.3-0.2,1.3-1s-0.1-0.9-1.8-1.3c-2.5-0.6-2.8-1.2-2.8-3.1
	s0.9-2.8,3.8-2.8c1,0,2.1,0.1,3.1,0.3l-0.2,2c-0.9-0.2-1.9-0.3-2.8-0.3c-1.1,0-1.3,0.2-1.3,0.8c0,0.8,0.1,0.8,1.4,1.2
	c2.9,0.7,3.1,1.1,3.1,3.1S145.6,47.6,142.6,47.6z M154.3,47.4v-6.8c0-0.5-0.2-0.8-0.8-0.8c-0.9,0.1-1.8,0.4-2.7,0.8v6.8h-2.6V33.7
	l2.6,0.4v4.3c1.2-0.6,2.4-0.9,3.7-1c1.7,0,2.3,1.2,2.3,2.9v7.1L154.3,47.4z M159,36.2v-2.4h2.6v2.4H159z M159,47.4v-9.8h2.6v9.8H159
	z M163.6,37.7c0-2.5,1.5-3.9,5-3.9c1.3,0,2.6,0.1,3.8,0.4l-0.3,2.2c-1.1-0.2-2.3-0.3-3.4-0.4c-1.8,0-2.4,0.6-2.4,2v5.2
	c0,1.4,0.6,2,2.4,2c1.1,0,2.2-0.1,3.3-0.3l0.3,2.2c-1.2,0.3-2.5,0.4-3.8,0.4c-3.5,0-5-1.4-5-3.9L163.6,37.7z M178,47.6
	c-3.5,0-4.4-1.8-4.4-3.9v-2.5c0-2,0.9-3.9,4.4-3.9s4.4,1.8,4.4,3.9v2.5C182.4,45.8,181.5,47.6,178,47.6z M178,39.5
	c-1.4,0-1.9,0.6-1.9,1.7v2.6c0,1.1,0.5,1.7,1.9,1.7s1.9-0.6,1.9-1.7v-2.6C179.9,40.1,179.3,39.5,178,39.5z M189.6,39.7
	c-0.9,0.4-1.8,0.9-2.7,1.4v6.3h-2.6v-9.8h2.2l0.2,1.1c0.8-0.5,1.7-1,2.7-1.3L189.6,39.7z M199.9,44.2c0,2.2-1,3.5-3.4,3.5
	c-0.9,0-1.8-0.1-2.7-0.3v4l-2.6,0.4V37.6h2l0.2,0.8c0.9-0.7,2.1-1,3.2-1c2.1,0,3.1,1.2,3.1,3.4L199.9,44.2z M193.8,45.3
	c0.7,0.2,1.5,0.2,2.3,0.3c0.9,0,1.3-0.4,1.3-1.3v-3.5c0-0.8-0.3-1.2-1.2-1.2c-0.8,0-1.6,0.3-2.3,0.9V45.3z"/>
</svg>
